<?xml version="1.0" encoding="UTF-8"?>
<svg version="1.1" xmlns="http://www.w3.org/2000/svg" width="175" height="190">
<path d="M0 0 C0.83595703 0.40541016 1.67191406 0.81082031 2.53320312 1.22851562 C8.49156126 4.12993834 14.41254115 7.10741108 20.33815002 10.07499695 C25.31314734 12.56585275 30.29393365 15.04486227 35.27714539 17.51924133 C39.1721515 19.45389557 43.06539606 21.39207997 46.95849609 23.33056641 C48.96887572 24.33064871 50.97996083 25.32931392 52.99169922 26.32666016 C55.93122825 27.78436773 58.86819245 29.24712978 61.8046875 30.7109375 C62.70661835 31.15674164 63.60854919 31.60254578 64.53781128 32.06185913 C65.36693024 32.47634308 66.19604919 32.89082703 67.05029297 33.31787109 C67.77924774 33.68012787 68.50820251 34.04238464 69.25924683 34.4156189 C71.0625 35.4375 71.0625 35.4375 73.0625 37.4375 C73.31697559 39.2626009 73.31697559 39.2626009 73.32319641 41.51667786 C73.33028122 42.3704451 73.33736603 43.22421234 73.34466553 44.10385132 C73.34218811 45.04258087 73.33971069 45.98131042 73.3371582 46.94848633 C73.34226913 47.93561111 73.34738007 48.9227359 73.35264587 49.93977356 C73.36659243 53.21642045 73.36558098 56.49285813 73.36328125 59.76953125 C73.36716604 62.04156066 73.37150026 64.31358934 73.37626648 66.58561707 C73.38374006 71.35470937 73.38342965 76.12372768 73.37817383 80.89282227 C73.37238461 87.00633998 73.38929165 93.1195542 73.4125185 99.23302174 C73.42724869 103.92817458 73.42812838 108.62325428 73.42500877 113.31842613 C73.42552257 115.5722889 73.43077122 117.82615569 73.44082069 120.07999611 C73.45315059 123.23297452 73.44641325 126.3853612 73.43481445 129.53833008 C73.44245819 130.47098694 73.45010193 131.4036438 73.45797729 132.36456299 C73.41860896 137.20387222 73.24462155 140.52359151 70.0625 144.4375 C68.15698242 145.74169922 68.15698242 145.74169922 65.91796875 146.7421875 C65.0357666 147.14945068 64.15356445 147.55671387 63.24462891 147.97631836 C62.25640137 148.4172583 61.26817383 148.85819824 60.25 149.3125 C58.00953777 150.34815942 55.77146817 151.38900272 53.53515625 152.43359375 C52.90623474 152.72647781 52.27731323 153.01936188 51.6293335 153.32112122 C40.34573612 158.60868635 29.25894175 164.31257917 18.12924194 169.91424561 C15.19374334 171.3910653 12.25704737 172.86548439 9.3203125 174.33984375 C8.45010971 174.77909683 7.57990692 175.21834991 6.68333435 175.6709137 C5.00159802 176.51508259 3.31537886 177.35038618 1.62457275 178.17623901 C-0.16557022 179.05749326 -1.94130456 179.96835754 -3.70513916 180.90115356 C-9.83075487 183.9900307 -14.24397041 185.43605461 -20.9375 183.4375 C-23.93662837 182.32127803 -26.73450968 180.95043488 -29.56640625 179.46484375 C-30.75555885 178.86283897 -30.75555885 178.86283897 -31.96873474 178.24867249 C-34.4861102 176.97057279 -36.99304713 175.67340347 -39.5 174.375 C-41.15362836 173.53059058 -42.80792138 172.68748148 -44.46289062 171.84570312 C-47.72506714 170.18457018 -50.98338861 168.51621895 -54.23901367 166.84228516 C-58.65136088 164.57760476 -63.08342452 162.35437518 -67.5234375 160.14453125 C-73.38460354 157.22486246 -79.21220449 154.25014549 -85 151.1875 C-85.77537109 150.78015625 -86.55074219 150.3728125 -87.34960938 149.953125 C-89.5518192 148.79151982 -91.75122171 147.62886866 -93.9375 146.4375 C-95.12134277 145.90923615 -96.30518555 145.38097229 -97.52490234 144.83670044 C-99.40042973 143.75242615 -99.40042973 143.75242615 -100.9375 142.4375 C-101.67732166 139.53957536 -101.88797215 137.70969832 -101.82397461 134.80517578 C-101.84013824 133.6576181 -101.84013824 133.6576181 -101.85662842 132.48687744 C-101.88407175 129.9512154 -101.86208307 127.41848647 -101.83984375 124.8828125 C-101.84924399 123.10275455 -101.86171108 121.32271042 -101.87709045 119.54269409 C-101.90940679 114.83918763 -101.89987505 110.13665185 -101.88171387 105.43310547 C-101.87071415 100.7300281 -101.89871662 96.02721774 -101.92382812 91.32421875 C-101.96274147 83.3364532 -101.95484126 75.34966479 -101.92891502 67.36188126 C-101.92019167 62.59563016 -101.98059536 57.83814183 -102.11376953 53.07324219 C-102.13693741 52.03884003 -102.16010529 51.00443787 -102.18397522 49.93869019 C-102.22847983 48.1430655 -102.29186171 46.34773629 -102.38035583 44.55374146 C-102.46311169 40.56316461 -102.16951834 38.73649998 -99.68798828 35.53857422 C-97.33676832 33.74249762 -95.29395259 32.35440087 -92.61328125 31.140625 C-91.76701172 30.74810547 -90.92074219 30.35558594 -90.04882812 29.95117188 C-89.12521484 29.53416016 -88.20160156 29.11714844 -87.25 28.6875 C-85.18210227 27.72716343 -83.11579517 26.76339704 -81.05078125 25.796875 C-79.91979004 25.26771484 -78.78879883 24.73855469 -77.62353516 24.19335938 C-71.40807804 21.25365306 -65.27928666 18.13650333 -59.13867188 15.04449463 C-54.78417546 12.85456835 -50.42193461 10.68010002 -46.06112671 8.5027771 C-42.79757348 6.87206823 -39.53656122 5.23689134 -36.28369141 3.58496094 C-33.11348231 1.9781614 -29.93351885 0.39271733 -26.75 -1.1875 C-25.84314453 -1.65478516 -24.93628906 -2.12207031 -24.00195312 -2.60351562 C-14.72024766 -7.15532667 -8.79771105 -4.36955153 0 0 Z " fill="#1D6123" transform="translate(101.9375,5.5625)"/>
<path d="M0 0 C0.83595703 0.40541016 1.67191406 0.81082031 2.53320312 1.22851562 C8.49285038 4.13056608 14.41275698 7.11290155 20.33815002 10.08406067 C25.30558282 12.57048379 30.28833679 15.02443886 35.27714539 17.46766663 C39.17441872 19.37828756 43.06668681 21.29898122 46.95849609 23.22070312 C48.96751527 24.20990057 50.97863776 25.19483619 52.99169922 26.17578125 C55.93501389 27.61122119 58.87041955 29.06180033 61.8046875 30.515625 C62.70661835 30.95110657 63.60854919 31.38658813 64.53781128 31.83526611 C65.36693024 32.249599 66.19604919 32.66393188 67.05029297 33.09082031 C67.77924774 33.44863586 68.50820251 33.80645142 69.25924683 34.17510986 C71.39885594 35.67297022 72.09468909 37.04349744 73.0625 39.4375 C72.03898438 39.86675781 71.01546875 40.29601563 69.9609375 40.73828125 C66.46526378 42.23705355 63.0769364 43.89745433 59.6875 45.625 C54.3546802 48.32332558 48.97846462 50.91045737 43.5625 53.4375 C37.34607111 56.34099004 31.19853477 59.35505212 25.07421875 62.44921875 C18.87355634 65.55036305 12.59155332 68.48861224 6.31982422 71.44262695 C1.03242081 73.9499382 -4.11310936 76.57965397 -9.16674805 79.53271484 C-10.9375 80.4375 -10.9375 80.4375 -12.9375 80.4375 C-12.93226318 81.31897705 -12.92702637 82.2004541 -12.92163086 83.10864258 C-12.90441731 86.43172888 -12.89196737 89.75476665 -12.88256836 93.07788086 C-12.87759138 94.50627396 -12.87080738 95.93466212 -12.86206055 97.36303711 C-12.81192425 105.77118859 -12.95153313 114.07289945 -13.9375 122.4375 C-14.2675 122.4375 -14.5975 122.4375 -14.9375 122.4375 C-16.30007843 108.13042646 -16.03518292 93.79388391 -15.9375 79.4375 C-18.2475 79.1075 -20.5575 78.7775 -22.9375 78.4375 C-22.9375 77.7775 -22.9375 77.1175 -22.9375 76.4375 C-25.50753864 75.12683728 -28.09288406 73.934044 -30.75 72.8125 C-34.38293535 71.22309079 -37.8469296 69.41597098 -41.3190918 67.50170898 C-47.56286695 64.06048811 -53.51335008 61.43770938 -60.3671875 59.36328125 C-63.45323718 58.25174056 -65.61251878 56.69608451 -68.15234375 54.66796875 C-71.064719 52.66053285 -74.30364751 51.5539651 -77.60546875 50.33203125 C-79.79974607 49.49034029 -81.85546982 48.52398472 -83.9375 47.4375 C-83.9375 46.7775 -83.9375 46.1175 -83.9375 45.4375 C-84.63230469 45.33566406 -85.32710937 45.23382813 -86.04296875 45.12890625 C-89.42802552 44.32032994 -92.16037019 42.97074287 -95.25 41.375 C-96.31863281 40.82714844 -97.38726562 40.27929688 -98.48828125 39.71484375 C-99.29652344 39.29332031 -100.10476562 38.87179688 -100.9375 38.4375 C-99.50271218 34.75672488 -98.0267902 33.63958549 -94.46875 32.01953125 C-93.04925049 31.35812134 -93.04925049 31.35812134 -91.60107422 30.68334961 C-90.03510498 29.97384155 -90.03510498 29.97384155 -88.4375 29.25 C-86.15746416 28.18787463 -83.87889692 27.12259276 -81.6015625 26.0546875 C-80.9940213 25.77094772 -80.3864801 25.48720795 -79.76052856 25.19487 C-72.77519199 21.91972957 -65.89035005 18.44716746 -59.00088501 14.97610474 C-54.67552045 12.79976037 -50.34183049 10.64003294 -46.00975037 8.47709656 C-42.7662543 6.85640758 -39.52534631 5.23116003 -36.29248047 3.58935547 C-33.11934765 1.98108032 -29.93644561 0.39418721 -26.75 -1.1875 C-25.3894751 -1.88854858 -25.3894751 -1.88854858 -24.00146484 -2.60375977 C-14.72003681 -7.15541767 -8.79738331 -4.36938875 0 0 Z " fill="#79C46A" transform="translate(101.9375,5.5625)"/>
<path d="M0 0 C2.475 0.495 2.475 0.495 5 1 C5.01981934 1.55985596 5.03963867 2.11971191 5.06005859 2.6965332 C5.15537783 5.23565854 5.26502753 7.77396888 5.375 10.3125 C5.4059375 11.19357422 5.436875 12.07464844 5.46875 12.98242188 C5.50742187 13.82998047 5.54609375 14.67753906 5.5859375 15.55078125 C5.6173584 16.33106689 5.6487793 17.11135254 5.68115234 17.9152832 C5.89587889 20.30155768 5.89587889 20.30155768 8 23 C9.32 23.33 10.64 23.66 12 24 C12 18.06 12 12.12 12 6 C14.475 6.99 14.475 6.99 17 8 C17.08103404 10.91722548 17.14051081 13.83219516 17.1875 16.75 C17.21263672 17.575 17.23777344 18.4 17.26367188 19.25 C17.33834499 25.42297754 17.33834499 25.42297754 15.48828125 28.578125 C14 30 14 30 10.875 29.9375 C5.81924486 28.71433343 3.77946972 26.27180246 1 22 C0.05862745 19.17588235 -0.11725382 17.47081968 -0.09765625 14.55078125 C-0.09443359 13.70322266 -0.09121094 12.85566406 -0.08789062 11.98242188 C-0.07951172 11.10134766 -0.07113281 10.22027344 -0.0625 9.3125 C-0.05798828 8.41982422 -0.05347656 7.52714844 -0.04882812 6.60742188 C-0.03704983 4.40488013 -0.02060164 2.20247401 0 0 Z " fill="#D7DDD8" transform="translate(28,98)"/>
<path d="M0 0 C1.65 0.33 3.3 0.66 5 1 C5.98697159 4.35191948 6.96314756 7.70689263 7.9375 11.0625 C8.21529297 12.00544922 8.49308594 12.94839844 8.77929688 13.91992188 C10.23385919 18.94955302 11.42945832 23.79290445 12 29 C9.5625 28.375 9.5625 28.375 7 27 C6.1875 23.875 6.1875 23.875 6 21 C5.05125 20.690625 4.1025 20.38125 3.125 20.0625 C-0 19 -0 19 -2 18 C-2.33 18.99 -2.66 19.98 -3 21 C-4.32 20.67 -5.64 20.34 -7 20 C-5.69039355 12.73763698 -3.24043814 6.6169252 0 0 Z " fill="#E6EAE7" transform="translate(15,92)"/>
<path d="M0 0 C4.83759997 0.21500444 7.59038638 1.59038638 11 5 C11.8125 7.25 11.8125 7.25 12 9 C7.66905042 9 5.72965139 8.03435531 2 6 C2.47050781 6.53109375 2.94101562 7.0621875 3.42578125 7.609375 C4.04839844 8.31578125 4.67101563 9.0221875 5.3125 9.75 C5.92738281 10.44609375 6.54226562 11.1421875 7.17578125 11.859375 C11.95399655 17.46635998 11.95399655 17.46635998 12.3125 21.625 C12 25 12 25 10 27 C6.41362965 27.06896866 3.98179643 26.82026155 1.171875 24.47265625 C-0.43829822 22.69318912 -1.85601936 21.11267393 -3 19 C-2.505 17.515 -2.505 17.515 -2 16 C1.43595166 17.52708963 4.11912454 19.59927045 7 22 C5.63439027 17.53073178 3.68866887 15.76650165 0 13 C-2.71232939 8.93150591 -2.30699887 6.83523216 -2 2 C-1.34 1.34 -0.68 0.68 0 0 Z " fill="#E0E4E0" transform="translate(50,110)"/>
<path d="M0 0 C3.8127519 1.2709173 6.90625009 2.33081901 10.375 4.125 C11.06335938 4.47820312 11.75171875 4.83140625 12.4609375 5.1953125 C12.96882813 5.46085937 13.47671875 5.72640625 14 6 C14 7.65 14 9.3 14 11 C10.51329166 9.8905928 7.22515763 8.73662334 4 7 C3.95489639 9.37897003 3.95489639 9.37897003 5 12 C7.2308475 13.67849824 9.47405906 14.75999263 12 16 C12 17.32 12 18.64 12 20 C7.25 19.125 7.25 19.125 5 18 C5 20.64 5 23.28 5 26 C2.525 25.01 2.525 25.01 0 24 C0 16.08 0 8.16 0 0 Z " fill="#EAEDEB" transform="translate(65,117)"/>
<path d="M0 0 C-2.29080813 2.7888099 -4.47612055 4.33262447 -7.75 5.69921875 C-11.86712323 7.47702033 -15.91181084 9.38110044 -19.94140625 11.34765625 C-20.86662331 11.79789658 -20.86662331 11.79789658 -21.81053162 12.25723267 C-24.37527417 13.50607513 -26.93895431 14.75704979 -29.50073242 16.01196289 C-49.48361564 25.7920057 -49.48361564 25.7920057 -56 24 C-56.33 23.01 -56.66 22.02 -57 21 C-55.68 21 -54.36 21 -53 21 C-53 21.66 -53 22.32 -53 23 C-44.61612652 19.09859353 -36.25577892 15.16680734 -28 11 C-22.24630988 8.11053562 -16.48434062 5.23955339 -10.6875 2.4375 C-9.60178711 1.89899414 -9.60178711 1.89899414 -8.49414062 1.34960938 C-3.34414522 -1.11471507 -3.34414522 -1.11471507 0 0 Z " fill="#9CD596" transform="translate(140,60)"/>
<path d="M0 0 C1.65 0.33 3.3 0.66 5 1 C5.53341184 2.57914015 6.05125763 4.16354387 6.5625 5.75 C6.85253906 6.63171875 7.14257812 7.5134375 7.44140625 8.421875 C8.01697435 11.07834316 7.89248371 12.47031106 7 15 C7 14.01 7 13.02 7 12 C6.34 12 5.68 12 5 12 C4.34 13.32 3.68 14.64 3 16 C2.01 15.34 1.02 14.68 0 14 C0 13.34 0 12.68 0 12 C-1.98 13.32 -3.96 14.64 -6 16 C-4.43551329 10.3856009 -2.83604813 5.13189662 0 0 Z " fill="#D8DFD8" transform="translate(15,92)"/>
<path d="M0 0 C1.79232337 0.30871122 3.58384321 0.62209064 5.375 0.9375 C6.87160156 1.19853516 6.87160156 1.19853516 8.3984375 1.46484375 C11 2 11 2 13 3 C12.01 3.33 11.02 3.66 10 4 C10.00523682 4.88147705 10.01047363 5.7629541 10.01586914 6.67114258 C10.03308269 9.99422888 10.04553263 13.31726665 10.05493164 16.64038086 C10.05990862 18.06877396 10.06669262 19.49716212 10.07543945 20.92553711 C10.12557575 29.33368859 9.98596687 37.63539945 9 46 C8.67 46 8.34 46 8 46 C6.63742157 31.69292646 6.90231708 17.35638391 7 3 C4.69 2.67 2.38 2.34 0 2 C0 1.34 0 0.68 0 0 Z " fill="#53AE46" transform="translate(79,82)"/>
<path d="M0 0 C0.33 0 0.66 0 1 0 C1.3403125 1.5778125 1.3403125 1.5778125 1.6875 3.1875 C3.03273239 7.94385737 6.15182447 10.40674524 9.8125 13.5625 C11 15 11 15 11 19 C8.72928539 17.98209345 7.19215368 17.22557171 5.5625 15.3125 C4.00338691 13.69365536 4.00338691 13.69365536 1.375 14.1875 C-1.16552003 14.74644234 -1.16552003 14.74644234 -2 17 C-5.63 17 -9.26 17 -13 17 C-10 15 -10 15 -6.4375 14.25 C-2.80482235 13.37076936 -2.80482235 13.37076936 -1.625 10.3125 C-0.97768288 6.88171924 -0.41600228 3.46668567 0 0 Z " fill="#194A13" transform="translate(46,113)"/>
<path d="M0 0 C-2.9925914 3.64315475 -6.16937855 5.15132 -10.4140625 6.9140625 C-14.24380048 8.52232105 -17.97009636 10.34852723 -21.71484375 12.14453125 C-22.84599609 12.56798828 -22.84599609 12.56798828 -24 13 C-24.66 12.67 -25.32 12.34 -26 12 C-26 11.34 -26 10.68 -26 10 C-22.23690862 8.12980635 -18.46341175 6.2816544 -14.6875 4.4375 C-13.0797168 3.63795898 -13.0797168 3.63795898 -11.43945312 2.82226562 C-9.89741211 2.07299805 -9.89741211 2.07299805 -8.32421875 1.30859375 C-7.37635498 0.84251709 -6.42849121 0.37644043 -5.4519043 -0.10375977 C-3 -1 -3 -1 0 0 Z " fill="#80C479" transform="translate(140,60)"/>
<path d="M0 0 C-2.82751297 1.88500864 -4.27652054 2.42317657 -7.5 3.0625 C-10.10082768 3.58700025 -12.47389425 4.15796475 -15 5 C-15.33 5.66 -15.66 6.32 -16 7 C-18.0390625 7.96484375 -18.0390625 7.96484375 -20.625 8.9375 C-23.78396242 10.14587101 -26.91006121 11.37452092 -30 12.75 C-33 14 -33 14 -35 14 C-35 14.66 -35 15.32 -35 16 C-36.65 16.33 -38.3 16.66 -40 17 C-40 16.34 -40 15.68 -40 15 C-35.43970836 12.67998549 -30.86837034 10.38401959 -26.28540039 8.10913086 C-24.7294388 7.3326871 -23.17663857 6.54987314 -21.62719727 5.76049805 C-19.39368269 4.62402273 -17.14963527 3.5112761 -14.90234375 2.40234375 C-14.21663803 2.047202 -13.53093231 1.69206024 -12.82444763 1.32615662 C-8.05493232 -0.98873342 -5.17229606 -1.2261782 0 0 Z " fill="#56AD4A" transform="translate(92,1)"/>
<path d="M0 0 C1.32 0.33 2.64 0.66 4 1 C4.02690844 3.62506802 4.04679404 6.24986173 4.0625 8.875 C4.07087891 9.62136719 4.07925781 10.36773437 4.08789062 11.13671875 C4.11328125 16.7734375 4.11328125 16.7734375 3 19 C2.01 19 1.02 19 0 19 C0 12.73 0 6.46 0 0 Z " fill="#E5E8E5" transform="translate(28,98)"/>
<path d="M0 0 C0 0.99 0 1.98 0 3 C-5.59527239 5.84850231 -11.24314449 8.49470177 -17 11 C-17.33 10.34 -17.66 9.68 -18 9 C-12.06 6.03 -6.12 3.06 0 0 Z M-20 10 C-19.34 10.33 -18.68 10.66 -18 11 C-19.48488367 13.96976734 -21.87678195 14.15119236 -24.85546875 15.203125 C-27.68478041 16.25445392 -30.33012443 17.59831532 -33 19 C-33 19.99 -33 20.98 -33 22 C-34.32 21.67 -35.64 21.34 -37 21 C-35.95781239 17.54392196 -34.80056519 16.88541647 -31.59375 15.04296875 C-30.2351903 14.41135766 -28.87028857 13.79324439 -27.5 13.1875 C-26.81035156 12.86330078 -26.12070312 12.53910156 -25.41015625 12.20507812 C-23.63770062 11.39831713 -21.82066993 10.69110292 -20 10 Z " fill="#66B857" transform="translate(38,23)"/>
<path d="M0 0 C3.43595166 1.52708963 6.11912454 3.59927045 9 6 C9.33 5.01 9.66 4.02 10 3 C10 4.65 10 6.3 10 8 C8.35 8.66 6.7 9.32 5 10 C3.96704564 8.90716423 2.94892165 7.80029421 1.9375 6.6875 C1.36902344 6.07261719 0.80054688 5.45773438 0.21484375 4.82421875 C-0.38650391 3.92123047 -0.38650391 3.92123047 -1 3 C-0.67 2.01 -0.34 1.02 0 0 Z " fill="#D6DDD7" transform="translate(48,126)"/>
<path d="M0 0 C0.33 0 0.66 0 1 0 C1.02505615 0.70084717 1.0501123 1.40169434 1.07592773 2.1237793 C1.19226545 5.31185488 1.31482044 8.49966242 1.4375 11.6875 C1.47681641 12.79029297 1.51613281 13.89308594 1.55664062 15.02929688 C1.59853516 16.09599609 1.64042969 17.16269531 1.68359375 18.26171875 C1.72025146 19.24100342 1.75690918 20.22028809 1.79467773 21.22924805 C1.99230152 23.89611172 2.47349142 26.38268667 3 29 C2.9173572 31.27401002 2.76851511 33.54633382 2.5625 35.8125 C2.46066406 36.97394531 2.35882813 38.13539062 2.25390625 39.33203125 C2.17011719 40.21246094 2.08632812 41.09289062 2 42 C1.67 42 1.34 42 1 42 C-0.31141684 28.01935971 -0.09936099 14.02824319 0 0 Z " fill="#3B9534" transform="translate(86,86)"/>
<path d="M0 0 C0.33 0 0.66 0 1 0 C1.02505615 0.55985596 1.0501123 1.11971191 1.07592773 1.6965332 C1.19203745 4.23541305 1.3146958 6.77393553 1.4375 9.3125 C1.47681641 10.19357422 1.51613281 11.07464844 1.55664062 11.98242188 C1.59853516 12.82998047 1.64042969 13.67753906 1.68359375 14.55078125 C1.72025146 15.33106689 1.75690918 16.11135254 1.79467773 16.9152832 C1.94125263 19.19329101 1.94125263 19.19329101 3 22 C2.34 22.66 1.68 23.32 1 24 C0.01 23.67 -0.98 23.34 -2 23 C-2.33 21.35 -2.66 19.7 -3 18 C-2.34 18 -1.68 18 -1 18 C-0.505 9.09 -0.505 9.09 0 0 Z " fill="#C6CFC3" transform="translate(32,99)"/>
<path d="M0 0 C1.98 0.99 3.96 1.98 6 3 C6 4.32 6 5.64 6 7 C1.25 6.125 1.25 6.125 -1 5 C-1 7.64 -1 10.28 -1 13 C-1.66 12.67 -2.32 12.34 -3 12 C-2.88541307 10.56163249 -2.75790884 9.12429034 -2.625 7.6875 C-2.55539063 6.88699219 -2.48578125 6.08648437 -2.4140625 5.26171875 C-2 3 -2 3 0 0 Z " fill="#C5CFC5" transform="translate(71,130)"/>
<path d="M0 0 C1.65161581 0.75836443 3.29617138 1.53212076 4.9375 2.3125 C5.85402344 2.74175781 6.77054688 3.17101563 7.71484375 3.61328125 C10 5 10 5 11 8 C3.57142857 11.28571429 3.57142857 11.28571429 0 12 C1.375 10 1.375 10 3 8 C3.66 8 4.32 8 5 8 C4.80528889 6.05000871 4.80528889 6.05000871 4 4 C2.0162233 2.71563266 2.0162233 2.71563266 0 2 C0 1.34 0 0.68 0 0 Z " fill="#6DBE6E" transform="translate(164,37)"/>
<path d="M0 0 C5.40188823 1.5236095 10.314996 3.92269211 15 7 C15.33 7.66 15.66 8.32 16 9 C13.69 8.67 11.38 8.34 9 8 C9 7.34 9 6.68 9 6 C7.3603125 5.5359375 7.3603125 5.5359375 5.6875 5.0625 C3.44592006 4.41662103 1.2130649 3.7376883 -1 3 C-0.67 2.01 -0.34 1.02 0 0 Z " fill="#54B947" transform="translate(107,9)"/>
<path d="M0 0 C2.26375987 2.26375987 2.44972755 3.24863773 3.0625 6.3125 C3.22621094 7.11171875 3.38992187 7.9109375 3.55859375 8.734375 C3.77708984 9.85585937 3.77708984 9.85585937 4 11 C4.309375 12.5159375 4.309375 12.5159375 4.625 14.0625 C4.74875 14.701875 4.8725 15.34125 5 16 C4.01 16 3.02 16 2 16 C1.46530198 14.27507022 0.94780825 12.544802 0.4375 10.8125 C0.14746094 9.84957031 -0.14257812 8.88664062 -0.44140625 7.89453125 C-1.02461026 4.87247412 -0.81178385 2.94070045 0 0 Z " fill="#184517" transform="translate(26,109)"/>
<path d="M0 0 C0.33 0 0.66 0 1 0 C1 5.61 1 11.22 1 17 C0.67 17 0.34 17 0 17 C-0.28875 16.113125 -0.5775 15.22625 -0.875 14.3125 C-1.83148748 11.49617576 -2.86798946 8.74916844 -4 6 C-3.525625 5.566875 -3.05125 5.13375 -2.5625 4.6875 C-0.76313043 2.97690387 -0.76313043 2.97690387 0 0 Z " fill="#1C4E18" transform="translate(63,117)"/>
<path d="M0 0 C1.32 0.33 2.64 0.66 4 1 C4 6.94 4 12.88 4 19 C3.67 19 3.34 19 3 19 C3 15.04 3 11.08 3 7 C2.34 7 1.68 7 1 7 C0.67 4.69 0.34 2.38 0 0 Z " fill="#D2DBD2" transform="translate(41,105)"/>
<path d="M0 0 C0.66 0.33 1.32 0.66 2 1 C2 1.66 2 2.32 2 3 C2.99 3 3.98 3 5 3 C5.125 5.375 5.125 5.375 5 8 C3 10 3 10 0.375 10.125 C-0.40875 10.08375 -1.1925 10.0425 -2 10 C-2 9.34 -2 8.68 -2 8 C-1.34 7.67 -0.68 7.34 0 7 C0 4.69 0 2.38 0 0 Z " fill="#E5E8E6" transform="translate(57,127)"/>
<path d="M0 0 C3.35237404 0.55872901 6.02471107 1.35846128 9 3 C9.66 3.33 10.32 3.66 11 4 C9.35 5.32 7.7 6.64 6 8 C4.99403703 7.0479279 3.99538437 6.08812654 3 5.125 C2.443125 4.59132813 1.88625 4.05765625 1.3125 3.5078125 C0 2 0 2 0 0 Z " fill="#2A5B25" transform="translate(52,116)"/>
<path d="M0 0 C0.66 0.33 1.32 0.66 2 1 C2 2.65 2 4.3 2 6 C1.34 6 0.68 6 0 6 C-0.33 6.99 -0.66 7.98 -1 9 C-2.32 8.67 -3.64 8.34 -5 8 C-4.45773019 4.20411134 -2.79872437 2.52788007 0 0 Z " fill="#E4E6E5" transform="translate(13,104)"/>
<path d="M0 0 C0.99 0 1.98 0 3 0 C3.33 2.64 3.66 5.28 4 8 C3.67 7.01 3.34 6.02 3 5 C2.34 5 1.68 5 1 5 C0.34 6.32 -0.32 7.64 -1 9 C-1.99 8.01 -2.98 7.02 -4 6 C-3.34 4.68 -2.68 3.36 -2 2 C-1.34 2 -0.68 2 0 2 C0 1.34 0 0.68 0 0 Z " fill="#849B80" transform="translate(19,99)"/>
<path d="M0 0 C-0.22265625 1.85546875 -0.22265625 1.85546875 -1 4 C-2.99609375 5.30078125 -2.99609375 5.30078125 -5.4375 6.3125 C-6.64212891 6.83263672 -6.64212891 6.83263672 -7.87109375 7.36328125 C-10 8 -10 8 -12 7 C-12 6.34 -12 5.68 -12 5 C-10.37750059 4.16180842 -8.75191503 3.3295884 -7.125 2.5 C-6.22007813 2.0359375 -5.31515625 1.571875 -4.3828125 1.09375 C-2 0 -2 0 0 0 Z " fill="#92CF8C" transform="translate(126,65)"/>
<path d="M0 0 C5.75 1.75 5.75 1.75 8 4 C7.34 4 6.68 4 6 4 C5.67 4.99 5.34 5.98 5 7 C2.525 6.01 2.525 6.01 0 5 C0 3.35 0 1.7 0 0 Z " fill="#376132" transform="translate(69,124)"/>
<path d="M0 0 C-0.33 1.32 -0.66 2.64 -1 4 C-7.4 5.23076923 -7.4 5.23076923 -10.4375 4.0625 C-10.953125 3.711875 -11.46875 3.36125 -12 3 C-12 2.34 -12 1.68 -12 1 C-10.68 1 -9.36 1 -8 1 C-8 1.66 -8 2.32 -8 3 C-6.576875 2.2575 -6.576875 2.2575 -5.125 1.5 C-2 0 -2 0 0 0 Z " fill="#A8DCA3" transform="translate(95,80)"/>
<path d="M0 0 C0.33 0.66 0.66 1.32 1 2 C1.66 2 2.32 2 3 2 C3 5.96 3 9.92 3 14 C0 11 0 11 -0.29296875 8.30078125 C-0.25816406 7.31464844 -0.22335938 6.32851562 -0.1875 5.3125 C-0.16042969 4.31863281 -0.13335937 3.32476562 -0.10546875 2.30078125 C-0.07066406 1.54152344 -0.03585938 0.78226562 0 0 Z " fill="#F1F3F2" transform="translate(41,110)"/>
<path d="M0 0 C4.47400242 -0.36275695 4.47400242 -0.36275695 6.8125 1.25 C8 3 8 3 8 7 C4.2047869 5.50902342 2.38957269 3.24299151 0 0 Z " fill="#27521F" transform="translate(49,125)"/>
<path d="M0 0 C2.9375 0.8125 2.9375 0.8125 6 2 C6.33 2.99 6.66 3.98 7 5 C4.69 5.33 2.38 5.66 0 6 C0 4.02 0 2.04 0 0 Z " fill="#0E3D0D" transform="translate(70,135)"/>
<path d="M0 0 C1.9375 0.75 1.9375 0.75 4 2 C4.75 4.125 4.75 4.125 5 6 C1 6 1 6 -0.75 4.5 C-1.1625 4.005 -1.575 3.51 -2 3 C-1.34 2.01 -0.68 1.02 0 0 Z " fill="#D6DCD6" transform="translate(57,113)"/>
<path d="M0 0 C0 1.65 0 3.3 0 5 C-1.98 4.34 -3.96 3.68 -6 3 C-6 2.01 -6 1.02 -6 0 C-3.50907189 -1.24546405 -2.58919267 -0.7767578 0 0 Z " fill="#D7DFD9" transform="translate(79,123)"/>
<path d="M0 0 C1.98 0.66 3.96 1.32 6 2 C5.67 3.65 5.34 5.3 5 7 C3.68 6.67 2.36 6.34 1 6 C0.67 4.02 0.34 2.04 0 0 Z " fill="#D5DBD6" transform="translate(14,105)"/>
<path d="M0 0 C-1.28650706 0.69710731 -2.57940665 1.38242876 -3.875 2.0625 C-4.95394531 2.63677734 -4.95394531 2.63677734 -6.0546875 3.22265625 C-6.69664063 3.47917969 -7.33859375 3.73570313 -8 4 C-8.66 3.67 -9.32 3.34 -10 3 C-9 0 -9 0 -6.6875 -1.3125 C-3.48890624 -2.13074492 -2.76560811 -1.57445067 0 0 Z " fill="#90CF87" transform="translate(104,79)"/>
<path d="M0 0 C3.3 1.65 6.6 3.3 10 5 C8.02 5.99 8.02 5.99 6 7 C5.34 6.01 4.68 5.02 4 4 C1.94996045 2.80767387 1.94996045 2.80767387 0 2 C0 1.34 0 0.68 0 0 Z " fill="#64BA52" transform="translate(164,37)"/>
<path d="M0 0 C0.66 0.99 1.32 1.98 2 3 C1.67 3.66 1.34 4.32 1 5 C0.77532169 6.53668865 0.59203195 8.07968054 0.4375 9.625 C0.35371094 10.44226563 0.26992188 11.25953125 0.18359375 12.1015625 C0.12300781 12.72804688 0.06242187 13.35453125 0 14 C-0.33 14 -0.66 14 -1 14 C-1.02685938 11.85423363 -1.04633088 9.70837355 -1.0625 7.5625 C-1.07410156 6.36753906 -1.08570313 5.17257813 -1.09765625 3.94140625 C-1 1 -1 1 0 0 Z " fill="#1F571E" transform="translate(46,106)"/>
<path d="M0 0 C2.29633824 3.44450737 2.54016485 5.93812283 3 10 C1.68 9.34 0.36 8.68 -1 8 C-0.7525 7.13375 -0.7525 7.13375 -0.5 6.25 C0.14462031 3.73335631 0.14462031 3.73335631 0 0 Z " fill="#BCC6BD" transform="translate(24,111)"/>
<path d="M0 0 C-0.33 0.66 -0.66 1.32 -1 2 C-3.32156597 2.40729228 -5.6568787 2.74438677 -8 3 C-8 2.34 -8 1.68 -8 1 C-3.375 -1.125 -3.375 -1.125 0 0 Z " fill="#93CF8E" transform="translate(140,60)"/>
</svg>
