<?xml version="1.0" encoding="UTF-8"?>
<svg width="64px" height="64px" viewBox="0 0 64 64" version="1.1" xmlns="http://www.w3.org/2000/svg">
    <g stroke="none" stroke-width="1" fill="none" fill-rule="evenodd">
        <circle fill="#9b59b6" cx="32" cy="32" r="32"/>
        <path d="M20,20 L44,20 C46.209139,20 48,21.790861 48,24 L48,40 C48,42.209139 46.209139,44 44,44 L20,44 C17.790861,44 16,42.209139 16,40 L16,24 C16,21.790861 17.790861,20 20,20 Z" fill="#FFFFFF"/>
        <path d="M24,28 L40,28 C41.1045695,28 42,28.8954305 42,30 L42,34 C42,35.1045695 41.1045695,36 40,36 L24,36 C22.8954305,36 22,35.1045695 22,34 L22,30 C22,28.8954305 22.8954305,28 24,28 Z" fill="#9b59b6"/>
    </g>
</svg>