<?xml version="1.0" encoding="UTF-8"?>
<svg version="1.1" xmlns="http://www.w3.org/2000/svg" width="171" height="189">
<path d="M0 0 C1.69437326 0.84065977 3.37693693 1.70554033 5.046875 2.59375 C6.26697266 3.20863281 6.26697266 3.20863281 7.51171875 3.8359375 C9.27509764 4.72707844 11.03318486 5.62874012 12.78686523 6.53881836 C16.20920332 8.30675341 19.65100671 10.03405666 23.09765625 11.75390625 C23.76513382 12.08721451 24.43261139 12.42052277 25.12031555 12.76393127 C29.98933976 15.1941373 34.86027286 17.6205163 39.73086548 20.0475769 C43.45213388 21.90231003 47.17278438 23.75828046 50.89331055 25.61450195 C52.81386589 26.57222153 54.73477391 27.52923415 56.65600586 28.4855957 C59.46300381 29.88307817 62.26873488 31.28307476 65.07421875 32.68359375 C65.93756332 33.11268539 66.8009079 33.54177704 67.69041443 33.98387146 C68.47956741 34.37841019 69.2687204 34.77294891 70.08178711 35.17944336 C70.77743271 35.52615585 71.47307831 35.87286835 72.18980408 36.23008728 C73.796875 37.09375 73.796875 37.09375 74.796875 38.09375 C74.8923443 39.49786317 74.91876029 40.90674809 74.91712952 42.31410217 C74.91919151 43.67925713 74.91919151 43.67925713 74.92129517 45.07199097 C74.91769989 46.07827545 74.91410461 47.08455994 74.91040039 48.12133789 C74.91054642 49.17486954 74.91069244 50.22840118 74.9108429 51.31385803 C74.91014326 54.814728 74.90234848 58.31554552 74.89453125 61.81640625 C74.89266725 64.23636343 74.89124326 66.65632099 74.89024353 69.07627869 C74.88641692 75.45990024 74.87658541 81.84349921 74.86553955 88.22711182 C74.85532851 94.73538914 74.85074657 101.2436701 74.84570312 107.75195312 C74.83496327 120.53256175 74.81807612 133.31315467 74.796875 146.09375 C68.40581534 149.36017496 62.0143716 152.62584748 55.62268066 155.89103699 C53.45576613 156.9981092 51.28893435 158.10534338 49.12219238 159.2127533 C12.51027412 177.92446525 12.51027412 177.92446525 -0.203125 184.09375 C-1.19892578 184.59527588 -1.19892578 184.59527588 -2.21484375 185.10693359 C-7.02427945 187.39619314 -11.30608863 188.12179901 -16.43499756 186.30174255 C-19.07710743 185.1174872 -21.65894902 183.84684869 -24.2421875 182.5390625 C-25.23264069 182.05132355 -26.22309387 181.56358459 -27.24356079 181.06106567 C-30.57014047 179.41850881 -33.88636994 177.75604555 -37.203125 176.09375 C-39.63243025 174.88755044 -42.06385996 173.68565754 -44.49511719 172.48339844 C-51.54372823 168.99347963 -58.5782899 165.47581639 -65.61071777 161.95343018 C-68.28144775 160.61673952 -70.9536837 159.28307366 -73.62589073 157.94933891 C-76.21041477 156.65887434 -78.79399264 155.36652508 -81.37727737 154.0735817 C-82.60423065 153.45977224 -83.83147974 152.84655373 -85.05903244 152.23394394 C-86.75044316 151.38949982 -88.44044592 150.54223733 -90.13037109 149.69482422 C-91.08914154 149.2150412 -92.04791199 148.73525818 -93.03573608 148.24093628 C-95.203125 147.09375 -95.203125 147.09375 -96.203125 146.09375 C-96.29863198 144.67696089 -96.32500983 143.25543759 -96.32337952 141.83543396 C-96.32475418 140.9169165 -96.32612885 139.99839905 -96.32754517 139.05204773 C-96.32394989 138.03641251 -96.32035461 137.02077728 -96.31665039 135.97436523 C-96.31679642 134.91108002 -96.31694244 133.8477948 -96.3170929 132.75228882 C-96.31639325 129.21895342 -96.30859843 125.68567 -96.30078125 122.15234375 C-96.29891725 119.70996632 -96.29749327 117.26758851 -96.29649353 114.82521057 C-96.29266689 108.38240536 -96.28283537 101.93962252 -96.27178955 95.49682617 C-96.26157856 88.92822574 -96.25699658 82.3596217 -96.25195312 75.79101562 C-96.24121323 62.89191751 -96.22432604 49.99283494 -96.203125 37.09375 C-92.42674493 35.19928562 -88.64965164 33.30625236 -84.87194824 31.41442871 C-83.59230131 30.77336365 -82.31283549 30.1319369 -81.03356934 29.4901123 C-72.00054985 24.95853867 -62.92731132 20.52385616 -53.78352356 16.21931458 C-48.44366592 13.70513431 -43.19098099 11.05737005 -37.97265625 8.30078125 C-36.09902549 7.32283353 -34.22445148 6.34671691 -32.34960938 5.37109375 C-30.57135733 4.43557031 -28.80686989 3.47402702 -27.04296875 2.51171875 C-17.78163355 -2.3024485 -9.89364113 -4.15663443 0 0 Z " fill="#007284" transform="translate(96.203125,1.90625)"/>
<path d="M0 0 C1.69437326 0.84065977 3.37693693 1.70554033 5.046875 2.59375 C6.26697266 3.20863281 6.26697266 3.20863281 7.51171875 3.8359375 C9.27499828 4.72702823 11.03309094 5.62843045 12.78686523 6.53808594 C16.21047366 8.3075103 19.65094661 10.04180055 23.09765625 11.765625 C23.76513382 12.09955261 24.43261139 12.43348022 25.12031555 12.77752686 C29.97792026 15.20108637 34.85159294 17.59061851 39.73086548 19.97021484 C43.45549497 21.78897755 47.17469871 23.61867769 50.89331055 25.44970703 C52.81183605 26.39108201 54.73280611 27.32748891 56.65600586 28.25927734 C59.46866287 29.62340535 62.27205954 31.00508757 65.07421875 32.390625 C66.36923561 33.01103668 66.36923561 33.01103668 67.69041443 33.64398193 C68.47956741 34.03829407 69.2687204 34.4326062 70.08178711 34.83886719 C71.12525551 35.34894318 71.12525551 35.34894318 72.18980408 35.86932373 C74.23215866 37.42539233 74.43811477 38.60329865 74.796875 41.09375 C72.321875 41.58875 72.321875 41.58875 69.796875 42.09375 C69.796875 42.75375 69.796875 43.41375 69.796875 44.09375 C69.03793945 44.45049805 69.03793945 44.45049805 68.26367188 44.81445312 C56.32012803 50.44898337 44.46282522 56.24081039 32.66015625 62.1640625 C31.59276215 62.69952698 30.52536804 63.23499146 29.42562866 63.78668213 C23.99023243 66.51498404 18.55794968 69.24931403 13.12890625 71.99023438 C11.0872883 73.01702396 9.04562359 74.04372056 7.00390625 75.0703125 C6.0641243 75.54695343 5.12434235 76.02359436 4.15608215 76.51467896 C-4.45242256 80.835249 -9.78616495 82.95744587 -19.203125 80.09375 C-23.16960862 78.56732621 -26.99400144 76.79950224 -30.828125 74.96875 C-31.88209473 74.4752002 -32.93606445 73.98165039 -34.02197266 73.47314453 C-41.79872321 69.81342734 -49.51113646 66.03349103 -57.16699219 62.12792969 C-61.16847011 60.09552435 -65.18750232 58.09801745 -69.203125 56.09375 C-70.74485399 55.32304133 -72.28652648 54.5522196 -73.828125 53.78125 C-74.941875 53.224375 -76.055625 52.6675 -77.203125 52.09375 C-77.203125 51.43375 -77.203125 50.77375 -77.203125 50.09375 C-79.183125 49.76375 -81.163125 49.43375 -83.203125 49.09375 C-83.203125 48.43375 -83.203125 47.77375 -83.203125 47.09375 C-83.80640625 46.90039062 -84.4096875 46.70703125 -85.03125 46.5078125 C-85.83046875 46.24742188 -86.6296875 45.98703125 -87.453125 45.71875 C-88.63648437 45.33589844 -88.63648437 45.33589844 -89.84375 44.9453125 C-92.06940458 44.14201333 -94.11244172 43.19663338 -96.203125 42.09375 C-96.203125 40.44375 -96.203125 38.79375 -96.203125 37.09375 C-68.15058777 22.96655063 -68.15058777 22.96655063 -53.95556641 16.30419922 C-48.56067436 13.75663741 -43.24770558 11.08733491 -37.97265625 8.30078125 C-36.09902549 7.32283353 -34.22445148 6.34671691 -32.34960938 5.37109375 C-30.57135733 4.43557031 -28.80686989 3.47402702 -27.04296875 2.51171875 C-17.78163355 -2.3024485 -9.89364113 -4.15663443 0 0 Z " fill="#24CFD3" transform="translate(96.203125,1.90625)"/>
<path d="M0 0 C2.64 0 5.28 0 8 0 C8 2.31 8 4.62 8 7 C6.5437455 7.67119549 5.08492133 8.33681807 3.625 9 C2.81289062 9.37125 2.00078125 9.7425 1.1640625 10.125 C-1 11 -1 11 -3 11 C-3 12.98 -3 14.96 -3 17 C-2.071875 16.505 -1.14375 16.01 -0.1875 15.5 C3 14 3 14 6 14 C6 15.65 6 17.3 6 19 C5.43410156 19.16113281 4.86820313 19.32226562 4.28515625 19.48828125 C1.7786924 20.41774324 0.01707177 21.22755183 -2 23 C-2.71946121 25.9341882 -2.81400749 28.52276487 -2.76953125 31.5390625 C-2.84558594 32.35117188 -2.92164063 33.16328125 -3 34 C-6 36 -6 36 -9 36 C-9.495 29.565 -9.495 29.565 -10 23 C-10.33 24.98 -10.66 26.96 -11 29 C-11.66 29.66 -12.32 30.32 -13 31 C-13 31.66 -13 32.32 -13 33 C-12.34 33 -11.68 33 -11 33 C-12.35282169 37.42741644 -14.23298888 39.36309221 -18 42 C-21.10920609 43.55460305 -24.63083028 43.72720693 -28 43 C-30.48786657 40.69265889 -30.97057672 39.19909754 -31.46875 35.828125 C-31.53468377 28.2787084 -31.3969998 22.61451112 -26 17 C-22.60304668 13.8612474 -19.7472833 12.19927555 -15.25 11 C-11.83711081 10.34945905 -11.83711081 10.34945905 -10.5625 7.5625 C-8.49586363 4.17321635 -6.4350988 3.77824378 -2.7421875 2.67578125 C-0.79182738 2.14378874 -0.79182738 2.14378874 0 0 Z " fill="#087486" transform="translate(151,88)"/>
<path d="M0 0 C1.6640625 1.26171875 1.6640625 1.26171875 3 3 C3.46684418 7.45623993 2.32307156 11.34143106 0.375 15.3125 C-1.84327412 17.82265229 -2.80678778 18.48749068 -5.6875 19.8125 C-9.14601218 21.56622893 -9.14601218 21.56622893 -9.56640625 24.17578125 C-9.78201722 26.60649987 -9.78201722 26.60649987 -9.734375 28.9765625 C-9.82203125 29.64429688 -9.9096875 30.31203125 -10 31 C-13 33 -13 33 -16 33 C-16 23.76 -16 14.52 -16 5 C-4.31578947 -0.84210526 -4.31578947 -0.84210526 0 0 Z " fill="#DFEAED" transform="translate(115,112)"/>
<path d="M0 0 C0.625 1.8125 0.625 1.8125 1 4 C-1 7 -1 7 -2.83984375 7.5546875 C-3.87818359 7.71324219 -3.87818359 7.71324219 -4.9375 7.875 C-7.95783248 8.55471185 -8.80531903 8.79315147 -11 11.125 C-12.34652873 14.99627011 -12.26858792 17.90403415 -12 22 C-11.67 22.66 -11.34 23.32 -11 24 C-8.06556598 23.73343428 -8.06556598 23.73343428 -5 23 C-4.34 22.01 -3.68 21.02 -3 20 C-1.35 20.33 0.3 20.66 2 21 C0.64717831 25.42741644 -1.23298888 27.36309221 -5 30 C-8.10920609 31.55460305 -11.63083028 31.72720693 -15 31 C-17.48786657 28.69265889 -17.97057672 27.19909754 -18.46875 23.828125 C-18.53473942 16.27233605 -18.39199503 10.62230638 -13 5 C-8.90075624 1.12001811 -5.83413512 -0.71147989 0 0 Z " fill="#E1ECEE" transform="translate(138,100)"/>
<path d="M0 0 C0 1.98 0 3.96 0 6 C-1.4562545 6.67119549 -2.91507867 7.33681807 -4.375 8 C-5.59316406 8.556875 -5.59316406 8.556875 -6.8359375 9.125 C-9 10 -9 10 -11 10 C-11 11.98 -11 13.96 -11 16 C-9.6078125 15.2575 -9.6078125 15.2575 -8.1875 14.5 C-5 13 -5 13 -2 13 C-2 14.65 -2 16.3 -2 18 C-2.56589844 18.16113281 -3.13179687 18.32226562 -3.71484375 18.48828125 C-6.2213076 19.41774324 -7.98292823 20.22755183 -10 22 C-10.71946121 24.9341882 -10.81400749 27.52276487 -10.76953125 30.5390625 C-10.88361328 31.75722656 -10.88361328 31.75722656 -11 33 C-14 35 -14 35 -17 35 C-17 25.76 -17 16.52 -17 7 C-14.56625 5.845 -12.1325 4.69 -9.625 3.5 C-8.86010254 3.13455078 -8.09520508 2.76910156 -7.30712891 2.39257812 C-2.22222222 0 -2.22222222 0 0 0 Z " fill="#DBE9EC" transform="translate(159,89)"/>
<path d="M0 0 C1.6796875 1.25390625 1.6796875 1.25390625 3 3 C3.48443578 7.62415972 2.29173024 11.45543688 0.125 15.5 C-2 18 -2 18 -5 19 C-5.33 18.34 -5.66 17.68 -6 17 C-7.32 16.67 -8.64 16.34 -10 16 C-10 12.04 -10 8.08 -10 4 C-10.66 3.67 -11.32 3.34 -12 3 C-7.82561234 0.61463562 -4.83415572 -0.6445541 0 0 Z " fill="#D9E9EB" transform="translate(115,112)"/>
<path d="M0 0 C-3.03428829 3.25444159 -6.57299573 4.99375625 -10.51953125 6.94140625 C-11.25572189 7.30975082 -11.99191254 7.6780954 -12.75041199 8.05760193 C-14.30653771 8.83449621 -15.86413808 9.60844278 -17.4230957 10.37963867 C-19.79696503 11.5548095 -22.1653553 12.74048587 -24.53320312 13.92773438 C-26.04916383 14.682925 -27.5654302 15.43750241 -29.08203125 16.19140625 C-29.78536087 16.54352676 -30.48869049 16.89564728 -31.21333313 17.25843811 C-42.501033 22.82206181 -42.501033 22.82206181 -49 21 C-52.2109375 19.37109375 -52.2109375 19.37109375 -55.375 17.4375 C-56.96441406 16.47650391 -56.96441406 16.47650391 -58.5859375 15.49609375 C-59.38257812 15.00238281 -60.17921875 14.50867188 -61 14 C-60.34 13.67 -59.68 13.34 -59 13 C-55.96716493 14.45285512 -53.07080231 16.10085498 -50.140625 17.75 C-46.40017961 19.23873448 -44.82889259 19.1466992 -41 18 C-38.63091986 16.87706721 -36.39749454 15.7263911 -34.125 14.4375 C-32.80434428 13.71179397 -31.48269381 12.98789585 -30.16015625 12.265625 C-29.13946045 11.70584961 -29.13946045 11.70584961 -28.09814453 11.13476562 C-24.61926901 9.25324207 -21.09613815 7.46351473 -17.5625 5.6875 C-16.92521973 5.36257568 -16.28793945 5.03765137 -15.63134766 4.70288086 C-3.12905083 -1.56452542 -3.12905083 -1.56452542 0 0 Z " fill="#57DFE0" transform="translate(130,62)"/>
<path d="M0 0 C3.3 0.33 6.6 0.66 10 1 C9.01 2.485 9.01 2.485 8 4 C7.72529931 5.97679037 7.72529931 5.97679037 7.8046875 8.1484375 C7.81129395 8.97939941 7.81790039 9.81036133 7.82470703 10.66650391 C7.84130371 11.56030762 7.85790039 12.45411133 7.875 13.375 C7.88257324 14.29587402 7.89014648 15.21674805 7.89794922 16.16552734 C7.92240366 19.11054042 7.95965978 22.05516418 8 25 C8.05308205 28.87498958 8.09313034 32.74978441 8.125 36.625 C8.14159668 37.51880371 8.15819336 38.41260742 8.17529297 39.33349609 C8.18189941 40.16445801 8.18850586 40.99541992 8.1953125 41.8515625 C8.20578613 42.58197754 8.21625977 43.31239258 8.22705078 44.06494141 C8 46 8 46 6 49 C5.26741888 42.99074916 4.81612968 37.0772356 4.68359375 31.02734375 C4.66281265 30.21882462 4.64203156 29.41030548 4.62062073 28.57728577 C4.55598384 26.03076486 4.49664591 23.48415373 4.4375 20.9375 C4.3942328 19.19595475 4.35061612 17.45441814 4.30664062 15.71289062 C4.20039252 11.47534948 4.09889177 7.23771894 4 3 C2.68 2.34 1.36 1.68 0 1 C0 0.67 0 0.34 0 0 Z " fill="#04B4C1" transform="translate(79,82)"/>
<path d="M0 0 C4.73774729 1.45358022 9.121348 3.39296411 13.55078125 5.58984375 C14.25019333 5.93503555 14.94960541 6.28022736 15.67021179 6.63587952 C17.13774148 7.36242902 18.60418328 8.09117965 20.06958008 8.82202148 C22.31821244 9.94034099 24.57388858 11.04350738 26.83007812 12.14648438 C28.25826892 12.85585265 29.68601951 13.56610805 31.11328125 14.27734375 C31.78925858 14.60556625 32.4652359 14.93378876 33.16169739 15.2719574 C37.88568691 17.65706073 37.88568691 17.65706073 39 21 C36.07120629 20.37240135 33.63904371 19.41377341 31 18 C31 17.34 31 16.68 31 16 C29.35 16 27.7 16 26 16 C26 15.34 26 14.68 26 14 C23.39683709 12.88435875 21.04450721 12.00809222 18.25 11.5 C17.5075 11.335 16.765 11.17 16 11 C15.67 10.34 15.34 9.68 15 9 C13.17489003 8.21984379 11.31393324 7.52204594 9.4375 6.875 C7.91962891 6.34519531 7.91962891 6.34519531 6.37109375 5.8046875 C5.19740234 5.40636719 5.19740234 5.40636719 4 5 C4 4.34 4 3.68 4 3 C2.35 2.67 0.7 2.34 -1 2 C-0.67 1.34 -0.34 0.68 0 0 Z " fill="#12CCD0" transform="translate(116,13)"/>
<path d="M0 0 C0.33 0 0.66 0 1 0 C1 7.92 1 15.84 1 24 C1.99 24.33 2.98 24.66 4 25 C4 25.33 4 25.66 4 26 C2.88625 26.268125 1.7725 26.53625 0.625 26.8125 C-3.21840951 27.65809019 -3.21840951 27.65809019 -5 31 C-5.66 31 -6.32 31 -7 31 C-5.54955729 26.89041233 -3.48889248 23.56741255 -1 20 C-1.66 20 -2.32 20 -3 20 C-3 19.34 -3 18.68 -3 18 C-3.66 17.67 -4.32 17.34 -5 17 C-3.68 16.67 -2.36 16.34 -1 16 C-0.67 10.72 -0.34 5.44 0 0 Z " fill="#085A68" transform="translate(141,101)"/>
<path d="M0 0 C-1 3 -1 3 -3.10131836 4.36621094 C-4.45688843 5.04345215 -4.45688843 5.04345215 -5.83984375 5.734375 C-7.3103418 6.47107422 -7.3103418 6.47107422 -8.81054688 7.22265625 C-9.84244141 7.72667969 -10.87433594 8.23070312 -11.9375 8.75 C-12.96552734 9.26949219 -13.99355469 9.78898437 -15.05273438 10.32421875 C-20.74332144 13.14148903 -20.74332144 13.14148903 -23 14 C-23.66 13.67 -24.32 13.34 -25 13 C-25 12.34 -25 11.68 -25 11 C-21.21135025 9.16038326 -17.41860225 7.32937928 -13.625 5.5 C-12.54476562 4.97535156 -11.46453125 4.45070313 -10.3515625 3.91015625 C-9.3203125 3.41386719 -8.2890625 2.91757812 -7.2265625 2.40625 C-6.27346191 1.94541016 -5.32036133 1.48457031 -4.33837891 1.00976562 C-2 0 -2 0 0 0 Z " fill="#3BD4D9" transform="translate(154,49)"/>
<path d="M0 0 C2.64 0 5.28 0 8 0 C4.9703348 2.44814179 1.92450401 4.09452853 -1.625 5.6875 C-3.06746094 6.34298828 -3.06746094 6.34298828 -4.5390625 7.01171875 C-7 8 -7 8 -9 8 C-9.66 10.97 -10.32 13.94 -11 17 C-11.66 16.67 -12.32 16.34 -13 16 C-13.39493921 12.64301676 -12.9814575 10.9613698 -11.5 7.875 C-8.68087527 4.63300656 -6.72869625 3.80459483 -2.70703125 2.640625 C-0.78698293 2.14085531 -0.78698293 2.14085531 0 0 Z " fill="#1596A3" transform="translate(151,88)"/>
<path d="M0 0 C0 0.99 0 1.98 0 3 C-0.99 3.33 -1.98 3.66 -3 4 C-3.02578125 4.61488281 -3.0515625 5.22976562 -3.078125 5.86328125 C-3.54716981 12.54716981 -3.54716981 12.54716981 -6.0625 15.0625 C-6.701875 15.371875 -7.34125 15.68125 -8 16 C-8 13.12610951 -7.8821956 10.30448808 -7.6875 7.4375 C-7.62949219 6.46683594 -7.57148438 5.49617188 -7.51171875 4.49609375 C-6.59027128 0.00139961 -4.21982671 0 0 0 Z " fill="#0E5F70" transform="translate(155,109)"/>
<path d="M0 0 C-0.48941176 5.50588235 -0.48941176 5.50588235 -2.9375 7.875 C-5 9 -5 9 -7 9 C-7 6.36 -7 3.72 -7 1 C-3.375 -1.125 -3.375 -1.125 0 0 Z " fill="#207B86" transform="translate(112,119)"/>
<path d="M0 0 C0.99 0.33 1.98 0.66 3 1 C1.8553125 1.804375 1.8553125 1.804375 0.6875 2.625 C-4.87790183 7.54326208 -5.40523201 12.72400022 -5.88671875 19.8046875 C-5.92410156 20.52914062 -5.96148437 21.25359375 -6 22 C-6.33 22 -6.66 22 -7 22 C-7.1953125 20.01432292 -7.390625 18.02864583 -7.5859375 16.04296875 C-7.92665391 13.70011858 -7.92665391 13.70011858 -10 11 C-9.34 10.67 -8.68 10.34 -8 10 C-7.71125 9.236875 -7.4225 8.47375 -7.125 7.6875 C-5.60913056 4.06625635 -3.51990889 1.75995444 0 0 Z " fill="#109BA9" transform="translate(126,102)"/>
<path d="M0 0 C0.7425 0.2475 1.485 0.495 2.25 0.75 C0.89978174 5.16889613 -1.01115668 7.09345343 -4.75 9.75 C-5.74 8.76 -6.73 7.77 -7.75 6.75 C-6.35890893 2.57672678 -4.73138713 -0.4301261 0 0 Z " fill="#D8E6E9" transform="translate(137.75,120.25)"/>
<path d="M0 0 C0.33 0 0.66 0 1 0 C1 1.65 1 3.3 1 5 C1.928125 4.505 2.85625 4.01 3.8125 3.5 C7 2 7 2 10 2 C10 3.65 10 5.3 10 7 C4.25 10 4.25 10 2 10 C2 8.68 2 7.36 2 6 C1.34 6 0.68 6 0 6 C0 4.02 0 2.04 0 0 Z " fill="#D5E5E8" transform="translate(147,100)"/>
<path d="M0 0 C-2.38335287 2.67438936 -4.87036148 4.15158012 -8.0625 5.75 C-9.37927734 6.42289062 -9.37927734 6.42289062 -10.72265625 7.109375 C-11.47417969 7.40328125 -12.22570312 7.6971875 -13 8 C-15 7 -15 7 -16 5 C-14.41925436 4.18247697 -12.83528777 3.37118003 -11.25 2.5625 C-10.36828125 2.11003906 -9.4865625 1.65757813 -8.578125 1.19140625 C-2.88188976 -1.44094488 -2.88188976 -1.44094488 0 0 Z " fill="#4BDADE" transform="translate(130,62)"/>
<path d="M0 0 C0 1.98 0 3.96 0 6 C-2.90600261 7.25664978 -4.79604584 8 -8 8 C-8 6.35 -8 4.7 -8 3 C-2.25 0 -2.25 0 0 0 Z " fill="#E1F0F2" transform="translate(159,89)"/>
<path d="M0 0 C5.2063297 1.58019592 9.98373311 3.77884995 14.875 6.125 C16.050625 6.68380859 16.050625 6.68380859 17.25 7.25390625 C19.16813499 8.16618997 21.08427329 9.08266984 23 10 C22.01 10.66 21.02 11.32 20 12 C17.6032896 10.73079864 15.20761907 9.45969813 12.8125 8.1875 C12.13896484 7.83107422 11.46542969 7.47464844 10.77148438 7.10742188 C3.30863883 3.13937229 3.30863883 3.13937229 0 1 C0 0.67 0 0.34 0 0 Z " fill="#0EC7CB" transform="translate(93,2)"/>
<path d="M0 0 C0.33 0 0.66 0 1 0 C1.10957031 0.74765625 1.21914062 1.4953125 1.33203125 2.265625 C1.49058594 3.25046875 1.64914063 4.2353125 1.8125 5.25 C1.96332031 6.22453125 2.11414063 7.1990625 2.26953125 8.203125 C3.04944718 11.18932718 3.84499229 12.80433176 6 15 C9.60465748 15.81314911 9.60465748 15.81314911 13 16 C10 18 10 18 7.5625 17.8125 C4.79186991 16.93400753 3.1247914 15.97302058 1 14 C-0.04976964 10.85069107 -0.10131595 8.61185544 -0.0625 5.3125 C-0.05347656 4.31863281 -0.04445313 3.32476562 -0.03515625 2.30078125 C-0.02355469 1.54152344 -0.01195313 0.78226562 0 0 Z " fill="#0B5969" transform="translate(118,116)"/>
<path d="M0 0 C0.33 0 0.66 0 1 0 C1.33 1.98 1.66 3.96 2 6 C2.33 6 2.66 6 3 6 C3.11269443 12.1105424 2.89604368 17.95170514 2 24 C1.67 24 1.34 24 1 24 C0.20318916 15.97497656 -0.12867289 8.06350113 0 0 Z " fill="#028A9C" transform="translate(84,122)"/>
<path d="M0 0 C-4.75 3 -4.75 3 -7 3 C-7 4.65 -7 6.3 -7 8 C-8.32 8.33 -9.64 8.66 -11 9 C-11 7.02 -11 5.04 -11 3 C-9.73581754 2.30034557 -8.46334598 1.61565237 -7.1875 0.9375 C-6.47980469 0.55464844 -5.77210938 0.17179687 -5.04296875 -0.22265625 C-3 -1 -3 -1 0 0 Z " fill="#1B7484" transform="translate(159,96)"/>
<path d="M0 0 C1.44096586 0.42594588 2.87768712 0.86626633 4.3125 1.3125 C5.11300781 1.55613281 5.91351563 1.79976562 6.73828125 2.05078125 C9.09964573 3.04182023 10.33879993 4.08074943 12 6 C7.80761095 7.39746302 5.89298197 5.84031875 2 4 C1.34 3.67 0.68 3.34 0 3 C0 2.01 0 1.02 0 0 Z " fill="#0EC7CE" transform="translate(0,41)"/>
<path d="M0 0 C1.98 0 3.96 0 6 0 C5.67 1.65 5.34 3.3 5 5 C2 6 2 6 -1 5 C-0.67 3.35 -0.34 1.7 0 0 Z " fill="#EAF2F4" transform="translate(133,101)"/>
<path d="M0 0 C-1.4160599 0.79275148 -2.83287553 1.58415312 -4.25 2.375 C-5.43335937 3.03628906 -5.43335937 3.03628906 -6.640625 3.7109375 C-7.80851562 4.34902344 -7.80851562 4.34902344 -9 5 C-9.67546875 5.40476562 -10.3509375 5.80953125 -11.046875 6.2265625 C-13.43971533 7.17412727 -14.61703182 6.85106007 -17 6 C-14.73495035 4.80015203 -12.46410112 3.61505231 -10.1875 2.4375 C-9.54490234 2.09525391 -8.90230469 1.75300781 -8.24023438 1.40039062 C-3.33984375 -1.11328125 -3.33984375 -1.11328125 0 0 Z " fill="#0EC5C9" transform="translate(82,1)"/>
<path d="M0 0 C0 0.66 0 1.32 0 2 C-0.56589844 2.19335938 -1.13179687 2.38671875 -1.71484375 2.5859375 C-2.81505859 2.97652344 -2.81505859 2.97652344 -3.9375 3.375 C-5.03384766 3.75785156 -5.03384766 3.75785156 -6.15234375 4.1484375 C-8.18682116 4.85271413 -8.18682116 4.85271413 -9 7 C-10.65 6.67 -12.3 6.34 -14 6 C-9.59471979 2.44188906 -5.75487737 0 0 0 Z " fill="#14CDD2" transform="translate(67,8)"/>
<path d="M0 0 C3.96 1.98 7.92 3.96 12 6 C9 8 9 8 7 8 C7 7.01 7 6.02 7 5 C5.68 5 4.36 5 3 5 C3 4.34 3 3.68 3 3 C1.68 2.34 0.36 1.68 -1 1 C-0.67 0.67 -0.34 0.34 0 0 Z " fill="#14CCCF" transform="translate(159,34)"/>
<path d="M0 0 C1.11375 0.185625 1.11375 0.185625 2.25 0.375 C0.875 1.875 0.875 1.875 -0.75 3.375 C-1.41 3.375 -2.07 3.375 -2.75 3.375 C-3.41 6.345 -4.07 9.315 -4.75 12.375 C-5.41 12.045 -6.07 11.715 -6.75 11.375 C-7.16451116 7.85165512 -6.70386636 6.28444137 -5.0625 3.0625 C-2.75 0.375 -2.75 0.375 0 0 Z " fill="#128D9B" transform="translate(144.75,92.625)"/>
<path d="M0 0 C0.33 0.66 0.66 1.32 1 2 C1.99 2.33 2.98 2.66 4 3 C4 3.33 4 3.66 4 4 C2.329375 4.4021875 2.329375 4.4021875 0.625 4.8125 C-3.21840951 5.65809019 -3.21840951 5.65809019 -5 9 C-5.66 9 -6.32 9 -7 9 C-5.64978174 4.58110387 -3.73884332 2.65654657 0 0 Z " fill="#035164" transform="translate(141,123)"/>
<path d="M0 0 C-0.33 0.66 -0.66 1.32 -1 2 C-1.86625 1.938125 -2.7325 1.87625 -3.625 1.8125 C-7.4433325 2.02462958 -9.65023358 3.24898574 -13 5 C-13.66 4.67 -14.32 4.34 -15 4 C-14.67 3.01 -14.34 2.02 -14 1 C-9.32798795 -0.20568053 -4.78503708 -0.09382426 0 0 Z " fill="#0D9EA9" transform="translate(116,111)"/>
<path d="M0 0 C2.2814917 0.926856 3.4668804 1.89610049 5 3.8125 C5 4.4725 5 5.1325 5 5.8125 C3.68 5.4825 2.36 5.1525 1 4.8125 C1 4.1525 1 3.4925 1 2.8125 C-1.97 2.3175 -1.97 2.3175 -5 1.8125 C-2 -0.1875 -2 -0.1875 0 0 Z " fill="#0DBDC4" transform="translate(18,49.1875)"/>
<path d="M0 0 C0.66 0 1.32 0 2 0 C1.34 4.95 0.68 9.9 0 15 C-0.33 15 -0.66 15 -1 15 C-1.1953125 13.01432292 -1.390625 11.02864583 -1.5859375 9.04296875 C-1.92665391 6.70011858 -1.92665391 6.70011858 -4 4 C-2.68 3.67 -1.36 3.34 0 3 C0 2.01 0 1.02 0 0 Z " fill="#42A1AB" transform="translate(120,109)"/>
<path d="M0 0 C2.64 0 5.28 0 8 0 C7.67 0.99 7.34 1.98 7 3 C5.02 3.33 3.04 3.66 1 4 C0.67 2.68 0.34 1.36 0 0 Z " fill="#0B6877" transform="translate(126,121)"/>
<path d="M0 0 C0.99 0.33 1.98 0.66 3 1 C3 2.32 3 3.64 3 5 C1.02 5.33 -0.96 5.66 -3 6 C-2.625 3.5625 -2.625 3.5625 -2 1 C-1.34 0.67 -0.68 0.34 0 0 Z " fill="#196E7B" transform="translate(109,118)"/>
<path d="M0 0 C0.99 0 1.98 0 3 0 C3.1875 2.8125 3.1875 2.8125 3 6 C2.01 6.99 1.02 7.98 0 9 C0 6.03 0 3.06 0 0 Z " fill="#095B6D" transform="translate(105,134)"/>
<path d="M0 0 C-0.6875 2.375 -0.6875 2.375 -2 5 C-4.625 6.3125 -4.625 6.3125 -7 7 C-4.60526316 0 -4.60526316 0 0 0 Z " fill="#1C7786" transform="translate(133,107)"/>
</svg>
